HIERARCHY
ROOT mixamorig:Hips
{
	OFFSET -0.000008 104.274872 1.554316
	CHANNELS 6 Xposition Yposition Zposition Xrotation Yrotation Zrotation
	JOINT mixamorig:Spine
	{
		OFFSET -0.000005 10.181595 0.131519
		CHANNELS 6 Xposition Yposition Zposition Xrotation Yrotation Zrotation
		JOINT mixamorig:Spine1
		{
			OFFSET -0.000000 9.893959 -1.470707
			CHANNELS 6 Xposition Yposition Zposition Xrotation Yrotation Zrotation
			JOINT mixamorig:Spine2
			{
				OFFSET -0.000000 9.220757 -1.370641
				CHANNELS 6 Xposition Yposition Zposition Xrotation Yrotation Zrotation
				JOINT mixamorig:Neck
				{
					OFFSET 0.000001 16.740417 -2.049036
					CHANNELS 6 Xposition Yposition Zposition Xrotation Yrotation Zrotation
					JOINT mixamorig:Head
					{
						OFFSET 0.000000 9.617874 1.685006
						CHANNELS 6 Xposition Yposition Zposition Xrotation Yrotation Zrotation
						JOINT mixamorig:HeadTop_End
						{
							OFFSET 0.000002 22.037354 7.501101
							CHANNELS 6 Xposition Yposition Zposition Xrotation Yrotation Zrotation
							End Site
							{
								OFFSET 0.000168 2310.654297 -282.823242
							}
						}
					}
				}
				JOINT mixamorig:RightShoulder
				{
					OFFSET -4.569970 11.014908 -2.160885
					CHANNELS 6 Xposition Yposition Zposition Xrotation Yrotation Zrotation
					JOINT mixamorig:RightArm
					{
						OFFSET -10.592851 -0.524811 -2.232101
						CHANNELS 6 Xposition Yposition Zposition Xrotation Yrotation Zrotation
						JOINT mixamorig:RightForeArm
						{
							OFFSET -27.841511 0.000031 -0.000004
							CHANNELS 6 Xposition Yposition Zposition Xrotation Yrotation Zrotation
							JOINT mixamorig:RightHand
							{
								OFFSET -28.328831 -0.000015 0.000015
								CHANNELS 6 Xposition Yposition Zposition Xrotation Yrotation Zrotation
								JOINT mixamorig:RightHandThumb1
								{
									OFFSET -2.464806 -1.573990 2.681852
									CHANNELS 6 Xposition Yposition Zposition Xrotation Yrotation Zrotation
									JOINT mixamorig:RightHandThumb2
									{
										OFFSET -3.215179 -1.872803 1.924282
										CHANNELS 6 Xposition Yposition Zposition Xrotation Yrotation Zrotation
										JOINT mixamorig:RightHandThumb3
										{
											OFFSET -2.654831 -1.527969 1.512609
											CHANNELS 6 Xposition Yposition Zposition Xrotation Yrotation Zrotation
											JOINT mixamorig:RightHandThumb4
											{
												OFFSET -2.018814 -1.152008 1.108052
												CHANNELS 6 Xposition Yposition Zposition Xrotation Yrotation Zrotation
												End Site
												{
													OFFSET -188.809540 -114.533607 132.431396
												}
											}
										}
									}
								}
								JOINT mixamorig:RightHandIndex1
								{
									OFFSET -9.108284 -0.517868 2.259835
									CHANNELS 6 Xposition Yposition Zposition Xrotation Yrotation Zrotation
									JOINT mixamorig:RightHandIndex2
									{
										OFFSET -3.699989 0.000000 0.001215
										CHANNELS 6 Xposition Yposition Zposition Xrotation Yrotation Zrotation
										JOINT mixamorig:RightHandIndex3
										{
											OFFSET -2.850006 0.000031 -0.000522
											CHANNELS 6 Xposition Yposition Zposition Xrotation Yrotation Zrotation
											JOINT mixamorig:RightHandIndex4
											{
												OFFSET -2.772186 -0.000015 -0.000020
												CHANNELS 6 Xposition Yposition Zposition Xrotation Yrotation Zrotation
												End Site
												{
													OFFSET -277.218445 0.000000 -0.050231
												}
											}
										}
									}
								}
								JOINT mixamorig:RightHandMiddle1
								{
									OFFSET -9.532516 -0.000031 -0.000023
									CHANNELS 6 Xposition Yposition Zposition Xrotation Yrotation Zrotation
									JOINT mixamorig:RightHandMiddle2
									{
										OFFSET -3.700005 -0.000015 0.003713
										CHANNELS 6 Xposition Yposition Zposition Xrotation Yrotation Zrotation
										JOINT mixamorig:RightHandMiddle3
										{
											OFFSET -2.949974 0.000015 -0.002054
											CHANNELS 6 Xposition Yposition Zposition Xrotation Yrotation Zrotation
											JOINT mixamorig:RightHandMiddle4
											{
												OFFSET -2.946640 0.000000 -0.000156
												CHANNELS 6 Xposition Yposition Zposition Xrotation Yrotation Zrotation
												End Site
												{
													OFFSET -294.664337 0.000000 -0.113670
												}
											}
										}
									}
								}
								JOINT mixamorig:RightHandRing1
								{
									OFFSET -9.103600 -0.043076 -1.865134
									CHANNELS 6 Xposition Yposition Zposition Xrotation Yrotation Zrotation
									JOINT mixamorig:RightHandRing2
									{
										OFFSET -3.379288 0.000000 -0.001055
										CHANNELS 6 Xposition Yposition Zposition Xrotation Yrotation Zrotation
										JOINT mixamorig:RightHandRing3
										{
											OFFSET -2.889687 -0.000015 0.000379
											CHANNELS 6 Xposition Yposition Zposition Xrotation Yrotation Zrotation
											JOINT mixamorig:RightHandRing4
											{
												OFFSET -2.638809 -0.000015 0.000941
												CHANNELS 6 Xposition Yposition Zposition Xrotation Yrotation Zrotation
												End Site
												{
													OFFSET -263.880371 0.000000 0.516020
												}
											}
										}
									}
								}
								JOINT mixamorig:RightHandPinky1
								{
									OFFSET -8.076683 -0.486710 -3.806280
									CHANNELS 6 Xposition Yposition Zposition Xrotation Yrotation Zrotation
									JOINT mixamorig:RightHandPinky2
									{
										OFFSET -3.600014 -0.000015 -0.003747
										CHANNELS 6 Xposition Yposition Zposition Xrotation Yrotation Zrotation
										JOINT mixamorig:RightHandPinky3
										{
											OFFSET -2.099983 0.000000 -0.005739
											CHANNELS 6 Xposition Yposition Zposition Xrotation Yrotation Zrotation
											JOINT mixamorig:RightHandPinky4
											{
												OFFSET -2.115768 -0.000031 -0.003680
												CHANNELS 6 Xposition Yposition Zposition Xrotation Yrotation Zrotation
												End Site
												{
													OFFSET -211.577087 0.000000 -0.350686
												}
											}
										}
									}
								}
							}
						}
					}
				}
				JOINT mixamorig:LeftShoulder
				{
					OFFSET 4.570447 11.014725 -2.160855
					CHANNELS 6 Xposition Yposition Zposition Xrotation Yrotation Zrotation
					JOINT mixamorig:LeftArm
					{
						OFFSET 10.592371 -0.524597 -2.232119
						CHANNELS 6 Xposition Yposition Zposition Xrotation Yrotation Zrotation
						JOINT mixamorig:LeftForeArm
						{
							OFFSET 27.841532 -0.000031 0.000026
							CHANNELS 6 Xposition Yposition Zposition Xrotation Yrotation Zrotation
							JOINT mixamorig:LeftHand
							{
								OFFSET 28.328846 -0.000061 0.000022
								CHANNELS 6 Xposition Yposition Zposition Xrotation Yrotation Zrotation
								JOINT mixamorig:LeftHandThumb1
								{
									OFFSET 2.466141 -1.576172 2.681732
									CHANNELS 6 Xposition Yposition Zposition Xrotation Yrotation Zrotation
									JOINT mixamorig:LeftHandThumb2
									{
										OFFSET 3.217812 -1.872070 1.916482
										CHANNELS 6 Xposition Yposition Zposition Xrotation Yrotation Zrotation
										JOINT mixamorig:LeftHandThumb3
										{
											OFFSET 2.656029 -1.528778 1.514513
											CHANNELS 6 Xposition Yposition Zposition Xrotation Yrotation Zrotation
											JOINT mixamorig:LeftHandThumb4
											{
												OFFSET 2.020889 -1.154053 1.115139
												CHANNELS 6 Xposition Yposition Zposition Xrotation Yrotation Zrotation
												End Site
												{
													OFFSET 190.885437 -115.081749 130.048782
												}
											}
										}
									}
								}
								JOINT mixamorig:LeftHandIndex1
								{
									OFFSET 9.109314 -0.518021 2.259871
									CHANNELS 6 Xposition Yposition Zposition Xrotation Yrotation Zrotation
									JOINT mixamorig:LeftHandIndex2
									{
										OFFSET 3.699989 0.000000 -0.000322
										CHANNELS 6 Xposition Yposition Zposition Xrotation Yrotation Zrotation
										JOINT mixamorig:LeftHandIndex3
										{
											OFFSET 2.850006 0.000000 0.000352
											CHANNELS 6 Xposition Yposition Zposition Xrotation Yrotation Zrotation
											JOINT mixamorig:LeftHandIndex4
											{
												OFFSET 2.774864 -0.000031 -0.000027
												CHANNELS 6 Xposition Yposition Zposition Xrotation Yrotation Zrotation
												End Site
												{
													OFFSET 277.486267 0.000000 -0.009857
												}
											}
										}
									}
								}
								JOINT mixamorig:LeftHandMiddle1
								{
									OFFSET 9.533394 0.000061 0.000044
									CHANNELS 6 Xposition Yposition Zposition Xrotation Yrotation Zrotation
									JOINT mixamorig:LeftHandMiddle2
									{
										OFFSET 3.699989 -0.000015 -0.000231
										CHANNELS 6 Xposition Yposition Zposition Xrotation Yrotation Zrotation
										JOINT mixamorig:LeftHandMiddle3
										{
											OFFSET 2.949997 -0.000015 -0.000059
											CHANNELS 6 Xposition Yposition Zposition Xrotation Yrotation Zrotation
											JOINT mixamorig:LeftHandMiddle4
											{
												OFFSET 2.952896 0.000031 0.000063
												CHANNELS 6 Xposition Yposition Zposition Xrotation Yrotation Zrotation
												End Site
												{
													OFFSET 295.289337 0.000000 0.022810
												}
											}
										}
									}
								}
								JOINT mixamorig:LeftHandRing1
								{
									OFFSET 9.104523 -0.042999 -1.865074
									CHANNELS 6 Xposition Yposition Zposition Xrotation Yrotation Zrotation
									JOINT mixamorig:LeftHandRing2
									{
										OFFSET 3.150009 -0.000031 0.000043
										CHANNELS 6 Xposition Yposition Zposition Xrotation Yrotation Zrotation
										JOINT mixamorig:LeftHandRing3
										{
											OFFSET 2.949982 -0.000015 0.000040
											CHANNELS 6 Xposition Yposition Zposition Xrotation Yrotation Zrotation
											JOINT mixamorig:LeftHandRing4
											{
												OFFSET 2.644348 0.000000 0.000057
												CHANNELS 6 Xposition Yposition Zposition Xrotation Yrotation Zrotation
												End Site
												{
													OFFSET 264.434631 0.000000 0.012105
												}
											}
										}
									}
								}
								JOINT mixamorig:LeftHandPinky1
								{
									OFFSET 8.077789 -0.486847 -3.806259
									CHANNELS 6 Xposition Yposition Zposition Xrotation Yrotation Zrotation
									JOINT mixamorig:LeftHandPinky2
									{
										OFFSET 3.599953 0.000031 0.014727
										CHANNELS 6 Xposition Yposition Zposition Xrotation Yrotation Zrotation
										JOINT mixamorig:LeftHandPinky3
										{
											OFFSET 2.100021 0.000015 0.007705
											CHANNELS 6 Xposition Yposition Zposition Xrotation Yrotation Zrotation
											JOINT mixamorig:LeftHandPinky4
											{
												OFFSET 2.125504 0.000031 0.007517
												CHANNELS 6 Xposition Yposition Zposition Xrotation Yrotation Zrotation
												End Site
												{
													OFFSET 212.550781 0.000000 0.625752
												}
											}
										}
									}
								}
							}
						}
					}
				}
			}
		}
	}
	JOINT mixamorig:RightUpLeg
	{
		OFFSET -8.207787 -6.751648 -1.599560
		CHANNELS 6 Xposition Yposition Zposition Xrotation Yrotation Zrotation
		JOINT mixamorig:RightLeg
		{
			OFFSET -0.000002 -44.370117 0.345942
			CHANNELS 6 Xposition Yposition Zposition Xrotation Yrotation Zrotation
			JOINT mixamorig:RightFoot
			{
				OFFSET 0.000003 -44.423679 -3.043532
				CHANNELS 6 Xposition Yposition Zposition Xrotation Yrotation Zrotation
				JOINT mixamorig:RightToeBase
				{
					OFFSET -0.000002 -8.728671 10.710558
					CHANNELS 6 Xposition Yposition Zposition Xrotation Yrotation Zrotation
					JOINT mixamorig:RightToe_End
					{
						OFFSET -0.000001 -0.000679 9.278119
						CHANNELS 6 Xposition Yposition Zposition Xrotation Yrotation Zrotation
						End Site
						{
							OFFSET 0.000000 -0.067690 927.812134
						}
					}
				}
			}
		}
	}
	JOINT mixamorig:LeftUpLeg
	{
		OFFSET 8.207793 -6.751686 -1.599556
		CHANNELS 6 Xposition Yposition Zposition Xrotation Yrotation Zrotation
		JOINT mixamorig:LeftLeg
		{
			OFFSET -0.000004 -44.370014 0.346954
			CHANNELS 6 Xposition Yposition Zposition Xrotation Yrotation Zrotation
			JOINT mixamorig:LeftFoot
			{
				OFFSET -0.000001 -44.423672 -3.044401
				CHANNELS 6 Xposition Yposition Zposition Xrotation Yrotation Zrotation
				JOINT mixamorig:LeftToeBase
				{
					OFFSET -0.000002 -8.728669 10.710558
					CHANNELS 6 Xposition Yposition Zposition Xrotation Yrotation Zrotation
					JOINT mixamorig:LeftToe_End
					{
						OFFSET -0.000003 -0.000679 9.278133
						CHANNELS 6 Xposition Yposition Zposition Xrotation Yrotation Zrotation
						End Site
						{
							OFFSET 0.000000 -0.068021 927.813477
						}
					}
				}
			}
		}
	}
}
MOTION
Frames: 3
Frame Time: 0.033333
0.000006 104.270477 1.554256 0.000010 0.000003 -0.000113 -0.000005 10.181587 0.131522 0.000001 -0.000003 0.000084 -0.000000 9.893967 -1.470711 0.000001 0.000000 -0.000000 -0.000000 9.220802 -1.370642 0.000000 -0.000000 -0.000000 0.000001 16.740433 -2.049030 0.000000 -0.000000 -0.000000 0.000000 9.617859 1.685014 0.000000 0.000000 0.000000 0.000002 22.037384 7.501101 0.000000 -0.000000 0.000000 -4.569968 11.014880 -2.160881 0.000008 0.000001 -0.000038 -10.592865 -0.524781 -2.231874 72.660249 36.162887 -27.001954 -27.841543 0.000011 0.000561 -58.482320 105.775567 72.994874 -28.328808 0.000022 0.000023 -0.000322 -0.000042 0.000005 -2.464450 -1.573954 2.682389 -24.714362 -152.703154 36.356998 -3.215254 -1.872521 1.924630 152.344924 34.241695 23.496846 -2.654940 -1.527911 1.513089 150.886693 25.970483 -38.473380 -2.018846 -1.151996 1.108067 -0.000005 -0.000002 0.000004 -9.108397 -0.517579 2.260149 104.215211 19.360844 -24.786417 -3.700086 0.000311 0.001543 102.695309 14.239905 -17.723796 -2.850094 0.000371 -0.000211 102.022884 11.030485 -13.603894 -2.772163 -0.000016 -0.000020 -0.000000 0.000002 -0.000000 -9.532614 0.000229 0.000239 93.637953 22.298005 -23.879745 -3.700098 0.000327 0.003972 93.413526 13.645016 -14.372480 -2.950059 0.000342 -0.001820 94.473756 11.561282 -12.486357 -2.946638 0.000013 -0.000157 -0.000001 0.000001 -0.000001 -9.103706 -0.042789 -1.864856 92.417767 23.644981 -24.585010 -3.379328 0.000330 -0.000840 89.866664 9.359226 -9.354808 -2.889758 0.000361 0.000637 94.556995 4.239405 -4.637818 -2.638811 -0.000014 0.000938 -0.000001 0.000001 0.000001 -8.076747 -0.486402 -3.806029 84.482617 20.817747 -18.798048 -3.600044 0.000273 -0.003527 86.026683 8.761561 -7.843217 -2.100002 0.000326 -0.005520 87.572096 4.638602 -4.239022 -2.115760 -0.000042 -0.003679 -0.000000 0.000001 -0.000000 4.570446 11.014691 -2.160851 -0.000018 0.000010 -0.000021 10.592424 -0.524468 -2.232383 73.724447 -21.258786 16.019978 27.841835 0.000054 -0.000193 106.822137 -72.619630 89.416110 28.328840 -0.000028 0.000022 0.000027 -0.000089 -0.000000 2.466008 -1.576157 2.681903 -37.246350 156.085341 -12.758988 3.217808 -1.871740 1.916381 155.491893 -30.007842 6.245252 2.656077 -1.528600 1.514435 142.289260 -27.752834 36.764910 2.020883 -1.154082 1.115146 0.000007 0.000002 0.000002 9.109380 -0.517856 2.259725 87.607073 -16.411346 15.736530 3.700047 0.000164 -0.000471 86.933487 -16.536494 15.701982 2.850070 0.000200 0.000210 86.299481 -14.178973 13.298515 2.774886 -0.000045 -0.000027 -0.000001 0.000001 0.000000 9.533469 0.000226 -0.000088 89.517006 -14.202414 14.075773 3.700037 0.000178 -0.000382 91.546262 -14.089150 14.467756 2.950078 0.000152 -0.000195 91.007619 -18.806789 19.137539 2.952873 -0.000032 0.000067 0.000004 -0.000000 0.000000 9.104591 -0.042844 -1.865209 86.887342 -13.440495 12.737265 3.150054 0.000213 -0.000075 94.839198 -12.905664 14.035541 2.950038 0.000187 -0.000080 99.041315 -15.561025 18.193597 2.644311 0.000031 0.000055 0.000002 -0.000000 -0.000000 8.077849 -0.486733 -3.806414 76.100233 -16.175778 13.156795 3.599988 0.000190 0.014577 78.483170 -11.492545 9.807524 2.100031 0.000194 0.007552 83.262028 -12.113644 11.205299 2.125511 -0.000016 0.007516 -0.000001 0.000000 0.000000 -8.207786 -6.751667 -1.599560 -0.077001 -0.000003 0.000080 -0.000002 -44.370110 0.345938 0.153719 -0.000000 -0.000000 0.000000 -44.423679 -3.043532 -0.076700 0.000000 -0.000002 -0.000006 -8.728667 10.710559 -0.000009 -0.000000 -0.000000 -0.000001 -0.000679 9.278123 0.000000 -0.000000 -0.000000 8.207792 -6.751710 -1.599556 -0.074518 -0.000003 0.000081 -0.000002 -44.370014 0.346960 0.148822 0.000002 0.000000 -0.000001 -44.423664 -3.044403 -0.074314 0.000000 -0.000002 -0.000004 -8.728671 10.710558 0.000007 -0.000000 -0.000000 0.000000 -0.000680 9.278137 -0.000000 0.000000 -0.000001 
0.000006 104.270477 1.554256 0.000010 0.000003 -0.000113 -0.000005 10.181587 0.131522 0.000001 -0.000003 0.000084 -0.000000 9.893967 -1.470711 0.000001 0.000000 -0.000000 -0.000000 9.220802 -1.370642 0.000000 -0.000000 -0.000000 0.000001 16.740433 -2.049030 0.000000 -0.000000 -0.000000 0.000000 9.617859 1.685014 0.000000 0.000000 0.000000 0.000002 22.037384 7.501101 0.000000 -0.000000 0.000000 -4.569968 11.014880 -2.160881 0.000008 0.000001 -0.000038 -10.592871 -0.524767 -2.231898 72.694810 32.998649 -24.591633 -27.841522 0.000018 0.000544 -53.411475 104.170842 65.715709 -28.328833 0.000018 0.000024 -0.000318 -0.000041 0.000003 -2.464435 -1.573899 2.682381 -33.279137 -153.235909 20.167156 -3.215248 -1.872522 1.924620 149.285095 34.497790 31.903639 -2.654966 -1.527877 1.513075 148.805903 26.938473 -33.714200 -2.018834 -1.152014 1.108063 -0.000004 0.000001 0.000002 -9.108403 -0.517578 2.260147 102.805180 19.597824 -24.477506 -3.700099 0.000290 0.001540 98.943452 17.519239 -20.405040 -2.850084 0.000354 -0.000245 98.793523 14.869791 -17.310877 -2.772170 -0.000000 -0.000024 0.000001 -0.000000 -0.000000 -9.532604 0.000260 0.000222 89.680172 18.156714 -18.201715 -3.700078 0.000312 0.003954 90.617499 11.118066 -11.143174 -2.950078 0.000313 -0.001795 95.558383 12.370347 -13.613437 -2.946649 0.000001 -0.000159 -0.000000 0.000002 0.000000 -9.103716 -0.042757 -1.864900 90.153443 18.699916 -18.703780 -3.379314 0.000337 -0.000825 92.347354 5.128455 -5.359685 -2.889746 0.000382 0.000658 99.067318 4.628178 -5.475911 -2.638808 -0.000005 0.000942 0.000001 0.000001 -0.000001 -8.076762 -0.486389 -3.806050 83.224229 18.482224 -16.309904 -3.600046 0.000279 -0.003537 86.829702 6.543206 -5.863942 -2.099987 0.000330 -0.005492 89.437898 3.960505 -3.709935 -2.115782 -0.000055 -0.003680 0.000002 -0.000002 -0.000004 4.570446 11.014691 -2.160851 -0.000018 0.000010 -0.000021 10.592421 -0.524465 -2.232365 73.686109 -19.321104 14.537078 27.841831 0.000053 -0.000199 108.790973 -74.530812 93.474574 28.328846 -0.000029 0.000016 0.000023 -0.000090 0.000000 2.466173 -1.576158 2.681875 -11.547378 155.821190 -61.243847 3.217801 -1.871710 1.916371 160.408618 -31.099439 2.203760 2.656105 -1.528649 1.514459 140.758383 -27.507465 48.153264 2.020899 -1.154069 1.115145 0.000005 -0.000003 -0.000001 9.109369 -0.517848 2.259746 93.000184 -19.206166 20.204985 3.700041 0.000168 -0.000468 87.758819 -11.948288 11.509036 2.850063 0.000197 0.000198 88.413145 -9.565357 9.303986 2.774885 -0.000032 -0.000025 0.000003 0.000000 0.000001 9.533453 0.000220 -0.000083 92.289004 -18.308097 19.031730 3.700032 0.000201 -0.000365 92.891980 -10.117144 10.635460 2.950069 0.000205 -0.000199 95.352221 -11.708353 12.850555 2.952866 -0.000029 0.000068 0.000005 0.000001 -0.000000 9.104574 -0.042841 -1.865232 90.965033 -17.865026 18.165489 3.150059 0.000231 -0.000100 96.603443 -9.456566 10.610181 2.950016 0.000215 -0.000074 99.581686 -9.822864 11.610721 2.644310 0.000016 0.000058 0.000001 0.000000 -0.000000 8.077842 -0.486724 -3.806380 80.419050 -19.729842 17.241025 3.599999 0.000204 0.014561 85.295607 -14.713756 14.041054 2.100060 0.000205 0.007577 89.146673 -11.869010 12.168858 2.125511 -0.000002 0.007514 -0.000002 -0.000003 0.000000 -8.207786 -6.751667 -1.599560 -0.077001 -0.000003 0.000080 -0.000002 -44.370110 0.345938 0.153719 -0.000000 -0.000000 0.000000 -44.423679 -3.043532 -0.076700 0.000000 -0.000002 -0.000006 -8.728667 10.710559 -0.000009 -0.000000 -0.000000 -0.000001 -0.000679 9.278123 0.000000 -0.000000 -0.000000 8.207792 -6.751710 -1.599556 -0.074518 -0.000003 0.000081 -0.000002 -44.370014 0.346960 0.148822 0.000002 0.000000 -0.000001 -44.423664 -3.044403 -0.074314 0.000000 -0.000002 -0.000004 -8.728671 10.710558 0.000007 -0.000000 -0.000000 0.000000 -0.000680 9.278137 -0.000000 0.000000 -0.000001 
0.000006 104.270477 1.554256 0.000010 0.000003 -0.000113 -0.000005 10.181587 0.131522 0.000001 -0.000003 0.000084 -0.000000 9.893967 -1.470711 0.000001 0.000000 -0.000000 -0.000000 9.220802 -1.370642 0.000000 -0.000000 -0.000000 0.000001 16.740433 -2.049030 0.000000 -0.000000 -0.000000 0.000000 9.617859 1.685014 0.000000 0.000000 0.000000 0.000002 22.037384 7.501101 0.000000 -0.000000 0.000000 -4.569968 11.014880 -2.160881 0.000008 0.000001 -0.000038 -10.592862 -0.524806 -2.231847 72.791375 41.501233 -31.208968 -27.841526 0.000009 0.000541 -52.784689 102.949686 63.870028 -28.328838 0.000020 0.000030 -0.000322 -0.000044 0.000008 -2.464419 -1.573899 2.682382 -31.064698 -152.047852 23.905281 -3.215238 -1.872490 1.924623 148.898151 34.621836 33.851469 -2.654968 -1.527901 1.513070 148.974772 26.978711 -33.086895 -2.018834 -1.151995 1.108063 -0.000004 -0.000003 0.000002 -9.108387 -0.517552 2.260165 103.793918 19.268611 -24.489350 -3.700068 0.000300 0.001528 100.101511 16.845164 -20.021347 -2.850102 0.000363 -0.000223 99.781885 14.424747 -17.086543 -2.772163 -0.000000 -0.000014 -0.000000 0.000000 -0.000000 -9.532596 0.000258 0.000237 90.037739 18.106463 -18.263391 -3.700057 0.000339 0.003950 90.869923 10.670747 -10.738538 -2.950062 0.000342 -0.001800 95.591168 11.983324 -13.195498 -2.946630 0.000002 -0.000162 0.000003 -0.000004 -0.000001 -9.103701 -0.042754 -1.864876 91.005843 18.569427 -18.846457 -3.379295 0.000340 -0.000837 92.417944 4.640851 -4.857612 -2.889741 0.000362 0.000638 98.832858 4.193610 -4.945937 -2.638815 -0.000000 0.000933 -0.000002 0.000003 0.000002 -8.076746 -0.486387 -3.806038 84.113882 18.444012 -16.528634 -3.600033 0.000276 -0.003535 87.097056 6.020325 -5.396610 -2.100015 0.000321 -0.005501 89.245239 3.473768 -3.218662 -2.115773 -0.000052 -0.003680 -0.000003 0.000000 -0.000001 4.570446 11.014691 -2.160851 -0.000018 0.000010 -0.000021 10.592443 -0.524467 -2.232397 73.906875 -28.380804 21.540625 27.841812 0.000028 -0.000177 106.263653 -78.758583 95.165422 28.328815 -0.000042 0.000024 0.000025 -0.000086 0.000000 2.466250 -1.575990 2.681846 32.140592 170.354808 -124.287135 3.217497 -1.871951 1.916582 133.680941 2.762862 -168.469976 2.656110 -1.528578 1.514473 164.294122 -22.332623 40.614221 2.020887 -1.154069 1.115145 0.000002 0.000003 0.000004 9.109405 -0.517897 2.259764 89.575390 -29.249998 29.029673 3.700078 0.000183 -0.000443 98.437923 -18.522486 21.429777 2.850073 0.000243 0.000209 101.291794 -12.775671 15.545955 2.774880 -0.000047 -0.000028 0.000001 -0.000001 -0.000000 9.533496 0.000181 -0.000063 85.037761 -24.712574 22.706768 3.700057 0.000201 -0.000370 95.117973 -10.438190 11.405815 2.950045 0.000196 -0.000209 96.614788 -10.494073 11.776000 2.952863 -0.000033 0.000060 0.000004 0.000001 -0.000002 9.104603 -0.042877 -1.865193 84.238567 -22.077487 20.008822 3.150046 0.000254 -0.000099 97.345960 -10.058977 11.432430 2.950016 0.000227 -0.000089 99.781612 -7.120426 8.450547 2.644310 0.000033 0.000057 0.000002 0.000002 -0.000000 8.077857 -0.486719 -3.806398 82.463408 -19.471391 17.634519 3.600005 0.000200 0.014556 87.986995 -11.604625 11.689122 2.100026 0.000235 0.007544 94.237780 -8.949832 10.134465 2.125510 0.000000 0.007517 0.000002 0.000000 0.000000 -8.207786 -6.751667 -1.599560 -0.077001 -0.000003 0.000080 -0.000002 -44.370110 0.345938 0.153719 -0.000000 -0.000000 0.000000 -44.423679 -3.043532 -0.076700 0.000000 -0.000002 -0.000006 -8.728667 10.710559 -0.000009 -0.000000 -0.000000 -0.000001 -0.000679 9.278123 0.000000 -0.000000 -0.000000 8.207792 -6.751710 -1.599556 -0.074518 -0.000003 0.000081 -0.000002 -44.370014 0.346960 0.148822 0.000002 0.000000 -0.000001 -44.423664 -3.044403 -0.074314 0.000000 -0.000002 -0.000004 -8.728671 10.710558 0.000007 -0.000000 -0.000000 0.000000 -0.000680 9.278137 -0.000000 0.000000 -0.000001 
